<mxfile host="app.diagrams.net" modified="2021-10-19T07:12:57.413Z" agent="5.0 (Windows NT 10.0; Win64; x64) AppleWebKit/537.36 (KHTML, like Gecko) Chrome/94.0.4606.81 Safari/537.36 Edg/94.0.992.47" etag="vTloBBcA1wXCIh9ZN3hU" version="15.5.4" type="github">
  <diagram id="XJnfa9iVQNfgnpCkA7nE" name="Page-1">
    <mxGraphModel dx="1363" dy="722" grid="1" gridSize="10" guides="1" tooltips="1" connect="1" arrows="1" fold="1" page="1" pageScale="1" pageWidth="827" pageHeight="1169" math="0" shadow="0">
      <root>
        <mxCell id="0" />
        <mxCell id="1" parent="0" />
        <mxCell id="L8E0o-ndIk_FhPRwy8EC-1" value="" style="rounded=1;whiteSpace=wrap;html=1;fillColor=#dae8fc;strokeColor=#6c8ebf;" parent="1" vertex="1">
          <mxGeometry x="310" y="180" width="270" height="160" as="geometry" />
        </mxCell>
        <mxCell id="L8E0o-ndIk_FhPRwy8EC-3" value="日志" style="rounded=1;whiteSpace=wrap;html=1;fillColor=#d5e8d4;strokeColor=#82b366;" parent="1" vertex="1">
          <mxGeometry x="19" y="177" width="120" height="60" as="geometry" />
        </mxCell>
        <mxCell id="L8E0o-ndIk_FhPRwy8EC-5" value="输入" style="text;html=1;strokeColor=none;fillColor=none;align=center;verticalAlign=middle;whiteSpace=wrap;rounded=0;fontSize=24;" parent="1" vertex="1">
          <mxGeometry y="80" width="100" height="20" as="geometry" />
        </mxCell>
        <mxCell id="L8E0o-ndIk_FhPRwy8EC-6" value="&lt;span style=&quot;color: rgb(0, 0, 0); font-family: helvetica; font-size: 12px; font-style: normal; font-weight: 400; letter-spacing: normal; text-align: center; text-indent: 0px; text-transform: none; word-spacing: 0px; background-color: rgb(248, 249, 250); display: inline; float: none;&quot;&gt;DV&lt;/span&gt;" style="text;whiteSpace=wrap;html=1;fontSize=24;" parent="1" vertex="1">
          <mxGeometry x="70" y="140" width="40" height="50" as="geometry" />
        </mxCell>
        <mxCell id="L8E0o-ndIk_FhPRwy8EC-7" value="告警" style="rounded=1;whiteSpace=wrap;html=1;fillColor=#d5e8d4;strokeColor=#82b366;" parent="1" vertex="1">
          <mxGeometry x="19" y="312" width="120" height="60" as="geometry" />
        </mxCell>
        <mxCell id="L8E0o-ndIk_FhPRwy8EC-9" value="&lt;span style=&quot;color: rgb(0 , 0 , 0) ; font-family: &amp;#34;helvetica&amp;#34; ; font-size: 12px ; font-style: normal ; font-weight: 400 ; letter-spacing: normal ; text-align: center ; text-indent: 0px ; text-transform: none ; word-spacing: 0px ; background-color: rgb(248 , 249 , 250) ; display: inline ; float: none&quot;&gt;SAE-CORE&lt;/span&gt;" style="text;whiteSpace=wrap;html=1;fontSize=24;" parent="1" vertex="1">
          <mxGeometry x="45" y="270" width="90" height="50" as="geometry" />
        </mxCell>
        <mxCell id="L8E0o-ndIk_FhPRwy8EC-11" value="实体" style="rounded=1;whiteSpace=wrap;html=1;fillColor=#d5e8d4;strokeColor=#82b366;" parent="1" vertex="1">
          <mxGeometry x="730" y="177" width="120" height="60" as="geometry" />
        </mxCell>
        <mxCell id="L8E0o-ndIk_FhPRwy8EC-12" value="实体关系" style="rounded=1;whiteSpace=wrap;html=1;fillColor=#d5e8d4;strokeColor=#82b366;" parent="1" vertex="1">
          <mxGeometry x="730" y="312" width="120" height="60" as="geometry" />
        </mxCell>
        <mxCell id="L8E0o-ndIk_FhPRwy8EC-13" value="规则聚合" style="rounded=1;whiteSpace=wrap;html=1;fillColor=#f5f5f5;strokeColor=#666666;fontColor=#333333;" parent="1" vertex="1">
          <mxGeometry x="350" y="233" width="80" height="60" as="geometry" />
        </mxCell>
        <mxCell id="L8E0o-ndIk_FhPRwy8EC-19" value="产出" style="text;html=1;strokeColor=none;fillColor=none;align=center;verticalAlign=middle;whiteSpace=wrap;rounded=0;fontSize=24;" parent="1" vertex="1">
          <mxGeometry x="653" y="90" width="100" height="20" as="geometry" />
        </mxCell>
        <mxCell id="L8E0o-ndIk_FhPRwy8EC-20" value="Kafka" style="text;html=1;strokeColor=none;fillColor=none;align=center;verticalAlign=middle;whiteSpace=wrap;rounded=0;fontSize=24;" parent="1" vertex="1">
          <mxGeometry x="170" y="312" width="40" height="20" as="geometry" />
        </mxCell>
        <mxCell id="L8E0o-ndIk_FhPRwy8EC-22" value="Kafka" style="text;html=1;strokeColor=none;fillColor=none;align=center;verticalAlign=middle;whiteSpace=wrap;rounded=0;fontSize=24;" parent="1" vertex="1">
          <mxGeometry x="170" y="177" width="40" height="20" as="geometry" />
        </mxCell>
        <mxCell id="L8E0o-ndIk_FhPRwy8EC-23" value="&lt;span style=&quot;color: rgb(0 , 0 , 0) ; font-family: &amp;#34;helvetica&amp;#34; ; font-size: 12px ; font-style: normal ; font-weight: 400 ; letter-spacing: normal ; text-align: center ; text-indent: 0px ; text-transform: none ; word-spacing: 0px ; background-color: rgb(248 , 249 , 250) ; display: inline ; float: none&quot;&gt;Elasticsearch&lt;/span&gt;" style="text;whiteSpace=wrap;html=1;fontSize=24;" parent="1" vertex="1">
          <mxGeometry x="753" y="140" width="40" height="50" as="geometry" />
        </mxCell>
        <mxCell id="L8E0o-ndIk_FhPRwy8EC-24" value="&lt;span style=&quot;color: rgb(0 , 0 , 0) ; font-family: &amp;#34;helvetica&amp;#34; ; font-size: 12px ; font-style: normal ; font-weight: 400 ; letter-spacing: normal ; text-align: center ; text-indent: 0px ; text-transform: none ; word-spacing: 0px ; background-color: rgb(248 , 249 , 250) ; display: inline ; float: none&quot;&gt;Elasticsearch&lt;/span&gt;" style="text;whiteSpace=wrap;html=1;fontSize=24;" parent="1" vertex="1">
          <mxGeometry x="753" y="270" width="40" height="50" as="geometry" />
        </mxCell>
        <mxCell id="L8E0o-ndIk_FhPRwy8EC-25" value="" style="shape=flexArrow;endArrow=classic;html=1;fontSize=24;fillColor=#d5e8d4;strokeColor=#82b366;exitX=1;exitY=0.5;exitDx=0;exitDy=0;" parent="1" source="L8E0o-ndIk_FhPRwy8EC-3" edge="1">
          <mxGeometry width="50" height="50" relative="1" as="geometry">
            <mxPoint x="150" y="210" as="sourcePoint" />
            <mxPoint x="250" y="207" as="targetPoint" />
          </mxGeometry>
        </mxCell>
        <mxCell id="L8E0o-ndIk_FhPRwy8EC-26" value="" style="shape=flexArrow;endArrow=classic;html=1;fontSize=24;fillColor=#d5e8d4;strokeColor=#82b366;exitX=1;exitY=0.5;exitDx=0;exitDy=0;" parent="1" edge="1">
          <mxGeometry width="50" height="50" relative="1" as="geometry">
            <mxPoint x="139" y="341.75" as="sourcePoint" />
            <mxPoint x="250" y="342" as="targetPoint" />
          </mxGeometry>
        </mxCell>
        <mxCell id="L8E0o-ndIk_FhPRwy8EC-27" value="" style="shape=flexArrow;endArrow=classic;html=1;fontSize=24;fillColor=#d5e8d4;strokeColor=#82b366;entryX=0;entryY=0.5;entryDx=0;entryDy=0;" parent="1" target="L8E0o-ndIk_FhPRwy8EC-11" edge="1">
          <mxGeometry width="50" height="50" relative="1" as="geometry">
            <mxPoint x="640" y="207" as="sourcePoint" />
            <mxPoint x="601" y="207.07999999999987" as="targetPoint" />
          </mxGeometry>
        </mxCell>
        <mxCell id="L8E0o-ndIk_FhPRwy8EC-28" value="" style="shape=flexArrow;endArrow=classic;html=1;fontSize=24;fillColor=#d5e8d4;strokeColor=#82b366;entryX=0;entryY=0.5;entryDx=0;entryDy=0;" parent="1" target="L8E0o-ndIk_FhPRwy8EC-12" edge="1">
          <mxGeometry width="50" height="50" relative="1" as="geometry">
            <mxPoint x="640" y="342" as="sourcePoint" />
            <mxPoint x="700" y="420" as="targetPoint" />
          </mxGeometry>
        </mxCell>
        <mxCell id="L8E0o-ndIk_FhPRwy8EC-29" value="&lt;span style=&quot;color: rgb(0 , 0 , 0) ; font-family: &amp;#34;helvetica&amp;#34; ; font-size: 12px ; font-style: normal ; font-weight: 400 ; letter-spacing: normal ; text-align: center ; text-indent: 0px ; text-transform: none ; word-spacing: 0px ; background-color: rgb(248 , 249 , 250) ; display: inline ; float: none&quot;&gt;Esper&lt;br&gt;&lt;/span&gt;" style="text;whiteSpace=wrap;html=1;fontSize=24;" parent="1" vertex="1">
          <mxGeometry x="373" y="197" width="80" height="50" as="geometry" />
        </mxCell>
        <mxCell id="L8E0o-ndIk_FhPRwy8EC-32" value="状态缓存" style="rounded=1;whiteSpace=wrap;html=1;fillColor=#f5f5f5;strokeColor=#666666;fontColor=#333333;" parent="1" vertex="1">
          <mxGeometry x="470" y="233" width="80" height="60" as="geometry" />
        </mxCell>
        <mxCell id="L8E0o-ndIk_FhPRwy8EC-33" value="&lt;span style=&quot;color: rgb(0 , 0 , 0) ; font-family: &amp;#34;helvetica&amp;#34; ; font-size: 12px ; font-style: normal ; font-weight: 400 ; letter-spacing: normal ; text-align: center ; text-indent: 0px ; text-transform: none ; word-spacing: 0px ; background-color: rgb(248 , 249 , 250) ; display: inline ; float: none&quot;&gt;Rocksdb&lt;br&gt;&lt;/span&gt;" style="text;whiteSpace=wrap;html=1;fontSize=24;" parent="1" vertex="1">
          <mxGeometry x="486" y="197" width="80" height="50" as="geometry" />
        </mxCell>
        <mxCell id="L8E0o-ndIk_FhPRwy8EC-40" value="" style="rounded=1;whiteSpace=wrap;html=1;fillColor=#ffe6cc;strokeColor=#d79b00;" parent="1" vertex="1">
          <mxGeometry x="310" y="490" width="270" height="150" as="geometry" />
        </mxCell>
        <mxCell id="L8E0o-ndIk_FhPRwy8EC-34" value="大网情报" style="rounded=1;whiteSpace=wrap;html=1;fillColor=#f5f5f5;strokeColor=#666666;fontColor=#333333;" parent="1" vertex="1">
          <mxGeometry x="350" y="540" width="80" height="60" as="geometry" />
        </mxCell>
        <mxCell id="L8E0o-ndIk_FhPRwy8EC-35" value="&lt;span style=&quot;color: rgb(0 , 0 , 0) ; font-family: &amp;#34;helvetica&amp;#34; ; font-size: 12px ; font-style: normal ; font-weight: 400 ; letter-spacing: normal ; text-align: center ; text-indent: 0px ; text-transform: none ; word-spacing: 0px ; background-color: rgb(248 , 249 , 250) ; display: inline ; float: none&quot;&gt;Java进程&lt;br&gt;&lt;/span&gt;" style="text;whiteSpace=wrap;html=1;fontSize=24;" parent="1" vertex="1">
          <mxGeometry x="360" y="140" width="80" height="50" as="geometry" />
        </mxCell>
        <mxCell id="L8E0o-ndIk_FhPRwy8EC-37" value="&lt;span style=&quot;color: rgb(0, 0, 0); font-family: helvetica; font-size: 12px; font-style: normal; font-weight: 400; letter-spacing: normal; text-align: center; text-indent: 0px; text-transform: none; word-spacing: 0px; background-color: rgb(248, 249, 250); display: inline; float: none;&quot;&gt;Threat graph&lt;/span&gt;" style="text;whiteSpace=wrap;html=1;fontSize=24;" parent="1" vertex="1">
          <mxGeometry x="355" y="500" width="90" height="50" as="geometry" />
        </mxCell>
        <mxCell id="L8E0o-ndIk_FhPRwy8EC-38" value="资产信息" style="rounded=1;whiteSpace=wrap;html=1;fillColor=#f5f5f5;strokeColor=#666666;fontColor=#333333;" parent="1" vertex="1">
          <mxGeometry x="470" y="540" width="80" height="60" as="geometry" />
        </mxCell>
        <mxCell id="L8E0o-ndIk_FhPRwy8EC-39" value="&lt;span style=&quot;color: rgb(0 , 0 , 0) ; font-family: &amp;#34;helvetica&amp;#34; ; font-size: 12px ; font-style: normal ; font-weight: 400 ; letter-spacing: normal ; text-align: center ; text-indent: 0px ; text-transform: none ; word-spacing: 0px ; background-color: rgb(248 , 249 , 250) ; display: inline ; float: none&quot;&gt;Asset&lt;/span&gt;" style="text;whiteSpace=wrap;html=1;fontSize=24;" parent="1" vertex="1">
          <mxGeometry x="490" y="500" width="90" height="50" as="geometry" />
        </mxCell>
        <mxCell id="L8E0o-ndIk_FhPRwy8EC-45" value="" style="endArrow=none;dashed=1;html=1;dashPattern=1 3;strokeWidth=2;fontSize=24;" parent="1" edge="1">
          <mxGeometry width="50" height="50" relative="1" as="geometry">
            <mxPoint x="30" y="440" as="sourcePoint" />
            <mxPoint x="840" y="440" as="targetPoint" />
          </mxGeometry>
        </mxCell>
        <mxCell id="L8E0o-ndIk_FhPRwy8EC-46" value="" style="endArrow=none;dashed=1;html=1;dashPattern=1 3;strokeWidth=2;fontSize=24;" parent="1" edge="1">
          <mxGeometry width="50" height="50" relative="1" as="geometry">
            <mxPoint x="250" y="650" as="sourcePoint" />
            <mxPoint x="250" y="80" as="targetPoint" />
          </mxGeometry>
        </mxCell>
        <mxCell id="L8E0o-ndIk_FhPRwy8EC-47" value="" style="endArrow=none;dashed=1;html=1;dashPattern=1 3;strokeWidth=2;fontSize=24;" parent="1" edge="1">
          <mxGeometry width="50" height="50" relative="1" as="geometry">
            <mxPoint x="640" y="646.9999999999998" as="sourcePoint" />
            <mxPoint x="640" y="80" as="targetPoint" />
          </mxGeometry>
        </mxCell>
        <mxCell id="L8E0o-ndIk_FhPRwy8EC-48" value="" style="shape=flexArrow;endArrow=classic;html=1;fontSize=24;fillColor=#dae8fc;strokeColor=#6c8ebf;exitX=0.25;exitY=1;exitDx=0;exitDy=0;entryX=0.25;entryY=0;entryDx=0;entryDy=0;" parent="1" source="L8E0o-ndIk_FhPRwy8EC-1" target="L8E0o-ndIk_FhPRwy8EC-40" edge="1">
          <mxGeometry width="50" height="50" relative="1" as="geometry">
            <mxPoint x="340" y="360" as="sourcePoint" />
            <mxPoint x="260" y="352" as="targetPoint" />
          </mxGeometry>
        </mxCell>
        <mxCell id="L8E0o-ndIk_FhPRwy8EC-49" value="" style="shape=flexArrow;endArrow=classic;html=1;fontSize=24;fillColor=#ffe6cc;strokeColor=#d79b00;exitX=0.75;exitY=0;exitDx=0;exitDy=0;entryX=0.75;entryY=1;entryDx=0;entryDy=0;" parent="1" source="L8E0o-ndIk_FhPRwy8EC-40" target="L8E0o-ndIk_FhPRwy8EC-1" edge="1">
          <mxGeometry width="50" height="50" relative="1" as="geometry">
            <mxPoint x="387.5" y="350" as="sourcePoint" />
            <mxPoint x="387.5" y="490" as="targetPoint" />
          </mxGeometry>
        </mxCell>
        <mxCell id="L8E0o-ndIk_FhPRwy8EC-50" value="&lt;div style=&quot;text-align: center&quot;&gt;&lt;span style=&quot;font-size: 12px&quot;&gt;&lt;font face=&quot;helvetica&quot;&gt;告警中发现的IOC&lt;/font&gt;&lt;/span&gt;&lt;/div&gt;" style="text;whiteSpace=wrap;html=1;fontSize=24;" parent="1" vertex="1">
          <mxGeometry x="383.5" y="360" width="123" height="50" as="geometry" />
        </mxCell>
        <mxCell id="L8E0o-ndIk_FhPRwy8EC-51" value="&lt;div&gt;&lt;span style=&quot;font-size: 12px&quot;&gt;&lt;font face=&quot;helvetica&quot;&gt;资产信息&lt;/font&gt;&lt;/span&gt;&lt;/div&gt;&lt;div&gt;&lt;span style=&quot;font-size: 12px&quot;&gt;&lt;font face=&quot;helvetica&quot;&gt;情报查询结果&lt;/font&gt;&lt;/span&gt;&lt;/div&gt;" style="text;whiteSpace=wrap;html=1;fontSize=24;align=left;" parent="1" vertex="1">
          <mxGeometry x="530" y="360" width="123" height="50" as="geometry" />
        </mxCell>
        <mxCell id="L8E0o-ndIk_FhPRwy8EC-52" value="交互" style="text;html=1;strokeColor=none;fillColor=none;align=center;verticalAlign=middle;whiteSpace=wrap;rounded=0;fontSize=24;" parent="1" vertex="1">
          <mxGeometry x="170" y="440" width="240" height="50" as="geometry" />
        </mxCell>
        <mxCell id="HZMfCsCFKdI5vhw1JfAz-2" value="1-Hour&lt;br style=&quot;font-size: 15px&quot;&gt;Tumbling Window" style="text;html=1;strokeColor=none;fillColor=none;align=center;verticalAlign=middle;whiteSpace=wrap;rounded=0;fontSize=15;" parent="1" vertex="1">
          <mxGeometry x="590" y="305" width="147" height="20" as="geometry" />
        </mxCell>
        <mxCell id="pcN1WT9D-IXZCm0L8NOu-11" style="edgeStyle=orthogonalEdgeStyle;rounded=0;orthogonalLoop=1;jettySize=auto;html=1;fontColor=#FFB570;curved=1;" edge="1" parent="1" source="pcN1WT9D-IXZCm0L8NOu-1" target="pcN1WT9D-IXZCm0L8NOu-9">
          <mxGeometry relative="1" as="geometry">
            <Array as="points">
              <mxPoint x="1410" y="190" />
              <mxPoint x="1680" y="190" />
            </Array>
          </mxGeometry>
        </mxCell>
        <mxCell id="pcN1WT9D-IXZCm0L8NOu-43" style="edgeStyle=orthogonalEdgeStyle;curved=1;rounded=0;orthogonalLoop=1;jettySize=auto;html=1;exitX=0.5;exitY=1;exitDx=0;exitDy=0;fontSize=12;fontColor=#FFB570;" edge="1" parent="1" source="pcN1WT9D-IXZCm0L8NOu-1" target="pcN1WT9D-IXZCm0L8NOu-35">
          <mxGeometry relative="1" as="geometry" />
        </mxCell>
        <mxCell id="pcN1WT9D-IXZCm0L8NOu-1" value="Artifact" style="rounded=1;whiteSpace=wrap;html=1;fillColor=#dae8fc;strokeColor=#6c8ebf;" vertex="1" parent="1">
          <mxGeometry x="1270" y="242" width="140" height="70" as="geometry" />
        </mxCell>
        <mxCell id="pcN1WT9D-IXZCm0L8NOu-4" style="edgeStyle=orthogonalEdgeStyle;rounded=0;orthogonalLoop=1;jettySize=auto;html=1;exitX=1;exitY=0.5;exitDx=0;exitDy=0;entryX=0;entryY=0.5;entryDx=0;entryDy=0;" edge="1" parent="1" source="pcN1WT9D-IXZCm0L8NOu-2" target="pcN1WT9D-IXZCm0L8NOu-1">
          <mxGeometry relative="1" as="geometry" />
        </mxCell>
        <mxCell id="pcN1WT9D-IXZCm0L8NOu-2" value="告警" style="rounded=1;whiteSpace=wrap;html=1;fillColor=#d5e8d4;strokeColor=#82b366;" vertex="1" parent="1">
          <mxGeometry x="1040" y="247" width="120" height="60" as="geometry" />
        </mxCell>
        <mxCell id="pcN1WT9D-IXZCm0L8NOu-3" value="&lt;span style=&quot;color: rgb(0 , 0 , 0) ; font-family: &amp;#34;helvetica&amp;#34; ; font-size: 12px ; font-style: normal ; font-weight: 400 ; letter-spacing: normal ; text-align: center ; text-indent: 0px ; text-transform: none ; word-spacing: 0px ; background-color: rgb(248 , 249 , 250) ; display: inline ; float: none&quot;&gt;SAE-CORE&lt;/span&gt;" style="text;whiteSpace=wrap;html=1;fontSize=24;" vertex="1" parent="1">
          <mxGeometry x="1066" y="205" width="90" height="50" as="geometry" />
        </mxCell>
        <mxCell id="pcN1WT9D-IXZCm0L8NOu-6" value="1" style="ellipse;whiteSpace=wrap;html=1;aspect=fixed;strokeWidth=2;fontFamily=Tahoma;spacingBottom=4;spacingRight=2;fillColor=#dae8fc;strokeColor=#6c8ebf;" vertex="1" parent="1">
          <mxGeometry x="1170" y="247" width="20" height="20" as="geometry" />
        </mxCell>
        <mxCell id="pcN1WT9D-IXZCm0L8NOu-7" value="接收告警" style="text;html=1;align=center;verticalAlign=middle;resizable=0;points=[];autosize=1;" vertex="1" parent="1">
          <mxGeometry x="1190" y="247" width="60" height="20" as="geometry" />
        </mxCell>
        <mxCell id="pcN1WT9D-IXZCm0L8NOu-22" style="edgeStyle=orthogonalEdgeStyle;curved=1;rounded=0;orthogonalLoop=1;jettySize=auto;html=1;exitX=0.25;exitY=1;exitDx=0;exitDy=0;entryX=1;entryY=1;entryDx=0;entryDy=0;fontSize=12;fontColor=#FFB570;" edge="1" parent="1" source="pcN1WT9D-IXZCm0L8NOu-9" target="pcN1WT9D-IXZCm0L8NOu-1">
          <mxGeometry relative="1" as="geometry">
            <Array as="points">
              <mxPoint x="1684" y="370" />
              <mxPoint x="1410" y="370" />
            </Array>
          </mxGeometry>
        </mxCell>
        <mxCell id="pcN1WT9D-IXZCm0L8NOu-9" value="Tomcat&lt;br&gt;Threat Graph" style="rounded=1;whiteSpace=wrap;html=1;fillColor=#d5e8d4;strokeColor=#82b366;" vertex="1" parent="1">
          <mxGeometry x="1654" y="247" width="120" height="60" as="geometry" />
        </mxCell>
        <mxCell id="pcN1WT9D-IXZCm0L8NOu-13" value="2" style="ellipse;whiteSpace=wrap;html=1;aspect=fixed;strokeWidth=2;fontFamily=Tahoma;spacingBottom=4;spacingRight=2;strokeColor=#6c8ebf;fillColor=#dae8fc;" vertex="1" parent="1">
          <mxGeometry x="1480" y="160" width="20" height="20" as="geometry" />
        </mxCell>
        <mxCell id="pcN1WT9D-IXZCm0L8NOu-14" value="提取IOCs" style="text;html=1;align=center;verticalAlign=middle;resizable=0;points=[];autosize=1;" vertex="1" parent="1">
          <mxGeometry x="1500" y="160" width="70" height="20" as="geometry" />
        </mxCell>
        <mxCell id="pcN1WT9D-IXZCm0L8NOu-19" style="edgeStyle=orthogonalEdgeStyle;curved=1;rounded=0;orthogonalLoop=1;jettySize=auto;html=1;exitX=0;exitY=0.5;exitDx=0;exitDy=0;entryX=1;entryY=0.5;entryDx=0;entryDy=0;fontSize=24;fontColor=#FFB570;" edge="1" parent="1" source="pcN1WT9D-IXZCm0L8NOu-15" target="pcN1WT9D-IXZCm0L8NOu-9">
          <mxGeometry relative="1" as="geometry" />
        </mxCell>
        <mxCell id="pcN1WT9D-IXZCm0L8NOu-15" value="智能情报分析接口" style="rounded=1;whiteSpace=wrap;html=1;strokeColor=#0080F0;strokeWidth=2;" vertex="1" parent="1">
          <mxGeometry x="1870" y="247" width="120" height="60" as="geometry" />
        </mxCell>
        <mxCell id="pcN1WT9D-IXZCm0L8NOu-16" value="" style="endArrow=none;dashed=1;html=1;dashPattern=1 3;strokeWidth=2;rounded=0;fontColor=#FFB570;curved=1;" edge="1" parent="1">
          <mxGeometry width="50" height="50" relative="1" as="geometry">
            <mxPoint x="1820" y="470" as="sourcePoint" />
            <mxPoint x="1820" y="60" as="targetPoint" />
          </mxGeometry>
        </mxCell>
        <mxCell id="pcN1WT9D-IXZCm0L8NOu-17" value="Online" style="text;html=1;align=center;verticalAlign=middle;resizable=0;points=[];autosize=1;fontSize=24;" vertex="1" parent="1">
          <mxGeometry x="1880" y="65" width="80" height="30" as="geometry" />
        </mxCell>
        <mxCell id="pcN1WT9D-IXZCm0L8NOu-18" value="Local" style="text;html=1;align=center;verticalAlign=middle;resizable=0;points=[];autosize=1;fontSize=24;" vertex="1" parent="1">
          <mxGeometry x="1679" y="65" width="70" height="30" as="geometry" />
        </mxCell>
        <mxCell id="pcN1WT9D-IXZCm0L8NOu-20" value="Kafka&amp;nbsp;" style="text;html=1;align=center;verticalAlign=middle;resizable=0;points=[];autosize=1;fontSize=12;" vertex="1" parent="1">
          <mxGeometry x="1610" y="205" width="50" height="20" as="geometry" />
        </mxCell>
        <mxCell id="pcN1WT9D-IXZCm0L8NOu-24" value="3" style="ellipse;whiteSpace=wrap;html=1;aspect=fixed;strokeWidth=2;fontFamily=Tahoma;spacingBottom=4;spacingRight=2;strokeColor=#6c8ebf;fontSize=12;fillColor=#dae8fc;" vertex="1" parent="1">
          <mxGeometry x="1480" y="375" width="20" height="20" as="geometry" />
        </mxCell>
        <mxCell id="pcN1WT9D-IXZCm0L8NOu-25" value="反馈情报数据" style="text;html=1;align=center;verticalAlign=middle;resizable=0;points=[];autosize=1;" vertex="1" parent="1">
          <mxGeometry x="1500" y="375" width="90" height="20" as="geometry" />
        </mxCell>
        <mxCell id="pcN1WT9D-IXZCm0L8NOu-26" value="" style="html=1;verticalLabelPosition=bottom;align=center;labelBackgroundColor=#ffffff;verticalAlign=top;strokeWidth=2;strokeColor=#0080F0;shadow=0;dashed=0;shape=mxgraph.ios7.icons.cloud;fontSize=12;fontColor=#FFB570;" vertex="1" parent="1">
          <mxGeometry x="1897.5" y="225" width="65" height="30" as="geometry" />
        </mxCell>
        <mxCell id="pcN1WT9D-IXZCm0L8NOu-27" value="Kafka&amp;nbsp;" style="text;html=1;align=center;verticalAlign=middle;resizable=0;points=[];autosize=1;fontSize=12;" vertex="1" parent="1">
          <mxGeometry x="1430" y="332" width="50" height="20" as="geometry" />
        </mxCell>
        <mxCell id="pcN1WT9D-IXZCm0L8NOu-28" value="&lt;span style=&quot;color: rgb(0, 0, 0); font-family: helvetica; font-size: 12px; font-style: normal; font-weight: 400; letter-spacing: normal; text-align: center; text-indent: 0px; text-transform: none; word-spacing: 0px; background-color: rgb(248, 249, 250); display: inline; float: none;&quot;&gt;情报云&lt;/span&gt;&lt;br style=&quot;color: rgb(0, 0, 0); font-family: helvetica; font-size: 12px; font-style: normal; font-weight: 400; letter-spacing: normal; text-align: center; text-indent: 0px; text-transform: none; word-spacing: 0px; background-color: rgb(248, 249, 250);&quot;&gt;" style="text;whiteSpace=wrap;html=1;fontSize=12;fontColor=#FFB570;" vertex="1" parent="1">
          <mxGeometry x="1910" y="233" width="60" height="30" as="geometry" />
        </mxCell>
        <mxCell id="pcN1WT9D-IXZCm0L8NOu-30" style="edgeStyle=orthogonalEdgeStyle;curved=1;rounded=0;orthogonalLoop=1;jettySize=auto;html=1;exitX=1;exitY=0.5;exitDx=0;exitDy=0;fontSize=12;fontColor=#FFB570;" edge="1" parent="1" source="pcN1WT9D-IXZCm0L8NOu-29">
          <mxGeometry relative="1" as="geometry">
            <mxPoint x="1340" y="240" as="targetPoint" />
          </mxGeometry>
        </mxCell>
        <mxCell id="pcN1WT9D-IXZCm0L8NOu-29" value="Asset" style="rounded=1;whiteSpace=wrap;html=1;fillColor=#d5e8d4;strokeColor=#82b366;" vertex="1" parent="1">
          <mxGeometry x="1150" y="95" width="120" height="60" as="geometry" />
        </mxCell>
        <mxCell id="pcN1WT9D-IXZCm0L8NOu-34" value="同步打分结果" style="text;html=1;align=center;verticalAlign=middle;resizable=0;points=[];autosize=1;" vertex="1" parent="1">
          <mxGeometry x="1330" y="115" width="90" height="20" as="geometry" />
        </mxCell>
        <mxCell id="pcN1WT9D-IXZCm0L8NOu-35" value="Elasticsearch" style="rounded=1;whiteSpace=wrap;html=1;fillColor=#fff2cc;strokeColor=#d6b656;" vertex="1" parent="1">
          <mxGeometry x="1280" y="410" width="120" height="60" as="geometry" />
        </mxCell>
        <mxCell id="pcN1WT9D-IXZCm0L8NOu-37" value="4" style="ellipse;whiteSpace=wrap;html=1;aspect=fixed;strokeWidth=2;fontFamily=Tahoma;spacingBottom=4;spacingRight=2;strokeColor=#6c8ebf;fontSize=12;fillColor=#dae8fc;" vertex="1" parent="1">
          <mxGeometry x="1144" y="50" width="20" height="20" as="geometry" />
        </mxCell>
        <mxCell id="pcN1WT9D-IXZCm0L8NOu-38" value="5" style="ellipse;whiteSpace=wrap;html=1;aspect=fixed;strokeWidth=2;fontFamily=Tahoma;spacingBottom=4;spacingRight=2;strokeColor=#6c8ebf;fontSize=12;fillColor=#dae8fc;" vertex="1" parent="1">
          <mxGeometry x="1310" y="115" width="20" height="20" as="geometry" />
        </mxCell>
        <mxCell id="pcN1WT9D-IXZCm0L8NOu-40" value="定时任务：资产打分" style="text;html=1;align=center;verticalAlign=middle;resizable=0;points=[];autosize=1;" vertex="1" parent="1">
          <mxGeometry x="1165" y="50" width="120" height="20" as="geometry" />
        </mxCell>
        <mxCell id="pcN1WT9D-IXZCm0L8NOu-41" value="&lt;span style=&quot;color: rgb(0, 0, 0); font-family: helvetica; font-size: 12px; font-style: normal; font-weight: 400; letter-spacing: normal; text-align: center; text-indent: 0px; text-transform: none; word-spacing: 0px; background-color: rgb(248, 249, 250); display: inline; float: none;&quot;&gt;Tomcat&lt;/span&gt;&lt;br style=&quot;color: rgb(0, 0, 0); font-family: helvetica; font-size: 12px; font-style: normal; font-weight: 400; letter-spacing: normal; text-align: center; text-indent: 0px; text-transform: none; word-spacing: 0px; background-color: rgb(248, 249, 250);&quot;&gt;" style="text;whiteSpace=wrap;html=1;fontSize=12;fontColor=#FFB570;" vertex="1" parent="1">
          <mxGeometry x="1190" y="70" width="60" height="30" as="geometry" />
        </mxCell>
        <mxCell id="pcN1WT9D-IXZCm0L8NOu-42" value="Kafka&amp;nbsp;" style="text;html=1;align=center;verticalAlign=middle;resizable=0;points=[];autosize=1;fontSize=12;" vertex="1" parent="1">
          <mxGeometry x="1330" y="170" width="50" height="20" as="geometry" />
        </mxCell>
        <mxCell id="pcN1WT9D-IXZCm0L8NOu-44" value="6" style="ellipse;whiteSpace=wrap;html=1;aspect=fixed;strokeWidth=2;fontFamily=Tahoma;spacingBottom=4;spacingRight=2;strokeColor=#6c8ebf;fontSize=12;fillColor=#dae8fc;" vertex="1" parent="1">
          <mxGeometry x="1255" y="355" width="20" height="20" as="geometry" />
        </mxCell>
        <mxCell id="pcN1WT9D-IXZCm0L8NOu-45" value="更新实体" style="text;html=1;align=center;verticalAlign=middle;resizable=0;points=[];autosize=1;" vertex="1" parent="1">
          <mxGeometry x="1270" y="355" width="60" height="20" as="geometry" />
        </mxCell>
      </root>
    </mxGraphModel>
  </diagram>
</mxfile>
